<svg id="SvgjsSvg1001" width="288" height="288" xmlns="http://www.w3.org/2000/svg" version="1.1" xmlns:xlink="http://www.w3.org/1999/xlink" xmlns:svgjs="http://svgjs.com/svgjs"><defs id="SvgjsDefs1002"></defs><g id="SvgjsG1008" transform="matrix(1,0,0,1,0,0)"><svg xmlns="http://www.w3.org/2000/svg" width="288" height="288" version="1.0" viewBox="0 0 670 565"><path d="M3165 5404 c-546 -55 -963 -176 -1450 -424 -439 -223 -823 -497-1112 -791 -228 -232 -365 -448 -414 -655 -30 -125 -23 -277 16 -384 76 -209
249 -417 550 -663 152 -125 283 -221 673 -494 471 -330 555 -394 1077 -822
437 -359 677 -526 950 -661 369 -183 718 -258 1160 -247 245 6 362 21 563 73
330 85 581 222 788 428 335 336 504 837 504 1504 0 774 -232 1492 -669 2067
-79 103 -321 354 -426 442 -393 325 -879 527 -1465 609 -110 15 -644 28 -745
18z" transform="matrix(.1 0 0 -.1 0 565)" fill="#141e39" class="color000 svgShape"></path></svg></g></svg>