<svg id="SvgjsSvg1001" width="288" height="288" xmlns="http://www.w3.org/2000/svg" version="1.1" xmlns:xlink="http://www.w3.org/1999/xlink" xmlns:svgjs="http://svgjs.com/svgjs"><defs id="SvgjsDefs1002"></defs><g id="SvgjsG1008" transform="matrix(1,0,0,1,0,0)"><svg xmlns="http://www.w3.org/2000/svg" width="288" height="288" version="1.0" viewBox="0 0 176 220"><path d="M1030 1984 c-285 -102 -673 -662 -816 -1177 -36 -127 -44 -320 -19-402 25 -77 86 -143 167 -181 59 -27 70 -29 193 -29 156 0 237 20 391 95 165
80 329 218 423 354 52 75 109 204 138 311 25 94 27 113 27 310 0 197 -2 216
-27 309 -52 193 -155 350 -262 401 -54 26 -157 30 -215 9z" transform="matrix(.1 0 0 -.1 0 220)" fill="#141e39" class="color000 svgShape"></path></svg></g></svg>