<svg width="1096" height="575" viewBox="0 0 1096 575" fill="none" xmlns="http://www.w3.org/2000/svg">
<g id="contact 1" clip-path="url(#clip0)">
<g id="Group" opacity="0.1">
<path id="Vector" opacity="0.1" d="M479.42 377.02C485.705 377.02 490.8 370.349 490.8 362.12C490.8 353.891 485.705 347.22 479.42 347.22C473.135 347.22 468.04 353.891 468.04 362.12C468.04 370.349 473.135 377.02 479.42 377.02Z" fill="#3F3D56"/>
<path id="Vector_2" opacity="0.1" d="M488.43 298.37C490.018 295.598 490.839 292.454 490.81 289.26C490.81 281.03 485.71 274.36 479.42 274.36C473.13 274.36 468 281.05 468 289.28C467.971 292.474 468.792 295.618 470.38 298.39C468.82 301.171 468.001 304.306 468.001 307.495C468.001 310.684 468.82 313.819 470.38 316.6C468.82 319.381 468.001 322.516 468.001 325.705C468.001 328.894 468.82 332.029 470.38 334.81C468.79 337.581 467.968 340.726 468 343.92C468 352.14 473.1 358.82 479.38 358.82C485.66 358.82 490.77 352.14 490.77 343.92C490.802 340.726 489.98 337.581 488.39 334.81C489.95 332.029 490.769 328.894 490.769 325.705C490.769 322.516 489.95 319.381 488.39 316.6C489.95 313.819 490.769 310.684 490.769 307.495C490.769 304.306 489.95 301.171 488.39 298.39L488.43 298.37Z" fill="#3F3D56"/>
<path id="Vector_3" opacity="0.1" d="M479.42 285.97C485.705 285.97 490.8 279.299 490.8 271.07C490.8 262.841 485.705 256.17 479.42 256.17C473.135 256.17 468.04 262.841 468.04 271.07C468.04 279.299 473.135 285.97 479.42 285.97Z" fill="#3F3D56"/>
<path id="Vector_4" opacity="0.1" d="M479.42 267.76C485.705 267.76 490.8 261.089 490.8 252.86C490.8 244.631 485.705 237.96 479.42 237.96C473.135 237.96 468.04 244.631 468.04 252.86C468.04 261.089 473.135 267.76 479.42 267.76Z" fill="#3F3D56"/>
<path id="Vector_5" opacity="0.1" d="M436.82 128.23C435.26 126.253 433.844 124.168 432.58 121.99L462.48 117.08L430.14 117.32C427.044 110.566 425.358 103.251 425.186 95.8231C425.014 88.3951 426.36 81.0102 429.14 74.12L472.53 96.63L432.53 67.21C436.249 60.6725 441.28 54.9749 447.307 50.4755C453.334 45.9761 460.226 42.7721 467.551 41.065C474.876 39.3578 482.475 39.1844 489.87 40.5556C497.265 41.9268 504.296 44.813 510.522 49.0328C516.748 53.2526 522.034 58.7147 526.047 65.0757C530.06 71.4368 532.714 78.5592 533.842 85.9954C534.969 93.4316 534.547 101.021 532.6 108.285C530.653 115.55 527.225 122.334 522.53 128.21C524.955 131.29 527.04 134.623 528.75 138.15L489.92 158.37L531.31 144.48C534.219 153.072 534.939 162.254 533.404 171.194C531.869 180.134 528.128 188.55 522.52 195.68C528.846 203.722 532.782 213.381 533.877 223.554C534.972 233.728 533.182 244.004 528.712 253.207C524.242 262.411 517.272 270.171 508.6 275.601C499.927 281.03 489.902 283.909 479.67 283.909C469.438 283.909 459.413 281.03 450.74 275.601C442.068 270.171 435.098 262.411 430.628 253.207C426.158 244.004 424.368 233.728 425.463 223.554C426.558 213.381 430.494 203.722 436.82 195.68C429.26 186.07 425.149 174.197 425.149 161.97C425.149 149.743 429.26 137.87 436.82 128.26V128.23Z" fill="#111827"/>
<path id="Vector_6" opacity="0.1" d="M534.19 161.94C534.21 174.171 530.097 186.049 522.52 195.65C528.846 203.692 532.782 213.351 533.877 223.524C534.972 233.698 533.182 243.973 528.712 253.177C524.242 262.381 517.272 270.141 508.6 275.571C499.927 281 489.902 283.879 479.67 283.879C469.438 283.879 459.413 281 450.74 275.571C442.068 270.141 435.098 262.381 430.628 253.177C426.158 243.973 424.368 233.698 425.463 223.524C426.558 213.351 430.494 203.692 436.82 195.65C429.51 186.37 534.19 155.82 534.19 161.94Z" fill="black"/>
</g>
<g id="Group_2" opacity="0.1">
<path id="Vector_7" opacity="0.1" d="M612.28 341.39C616.98 341.39 620.79 336.407 620.79 330.26C620.79 324.113 616.98 319.13 612.28 319.13C607.58 319.13 603.77 324.113 603.77 330.26C603.77 336.407 607.58 341.39 612.28 341.39Z" fill="#3F3D56"/>
<path id="Vector_8" opacity="0.1" d="M619 282.63C620.183 280.561 620.794 278.214 620.77 275.83C620.77 269.68 616.96 264.69 612.27 264.69C607.58 264.69 603.76 269.69 603.76 275.83C603.734 278.215 604.349 280.563 605.54 282.63C604.373 284.708 603.76 287.052 603.76 289.435C603.76 291.818 604.373 294.162 605.54 296.24C604.373 298.318 603.76 300.662 603.76 303.045C603.76 305.428 604.373 307.772 605.54 309.85C604.349 311.917 603.734 314.265 603.76 316.65C603.76 322.8 607.57 327.79 612.27 327.79C616.97 327.79 620.77 322.79 620.77 316.65C620.794 314.266 620.183 311.919 619 309.85C620.158 307.769 620.765 305.427 620.765 303.045C620.765 300.663 620.158 298.321 619 296.24C620.158 294.159 620.765 291.817 620.765 289.435C620.765 287.053 620.158 284.711 619 282.63V282.63Z" fill="#3F3D56"/>
<path id="Vector_9" opacity="0.1" d="M612.28 273.35C616.98 273.35 620.79 268.367 620.79 262.22C620.79 256.073 616.98 251.09 612.28 251.09C607.58 251.09 603.77 256.073 603.77 262.22C603.77 268.367 607.58 273.35 612.28 273.35Z" fill="#3F3D56"/>
<path id="Vector_10" opacity="0.1" d="M612.28 259.74C616.98 259.74 620.79 254.757 620.79 248.61C620.79 242.463 616.98 237.48 612.28 237.48C607.58 237.48 603.77 242.463 603.77 248.61C603.77 254.757 607.58 259.74 612.28 259.74Z" fill="#3F3D56"/>
<path id="Vector_11" opacity="0.1" d="M580.44 155.48C579.272 154.005 578.213 152.448 577.27 150.82L599.62 147.15L575.45 147.33C573.131 142.284 571.866 136.817 571.732 131.265C571.598 125.713 572.598 120.192 574.67 115.04L607.1 131.87L577.19 109.87C579.987 105.018 583.754 100.795 588.257 97.4641C592.759 94.1332 597.899 91.7661 603.357 90.5105C608.815 89.2549 614.473 89.1378 619.978 90.1665C625.483 91.1952 630.717 93.3476 635.353 96.4893C639.989 99.6311 643.928 103.695 646.924 108.427C649.919 113.159 651.907 118.457 652.764 123.992C653.62 129.526 653.327 135.178 651.901 140.594C650.476 146.01 647.95 151.074 644.48 155.47C646.29 157.774 647.849 160.265 649.13 162.9L620.13 177.97L651.06 167.59C653.233 174.011 653.77 180.872 652.622 187.552C651.475 194.233 648.68 200.522 644.49 205.85C649.224 211.858 652.171 219.076 652.993 226.68C653.816 234.284 652.482 241.967 649.144 248.848C645.805 255.729 640.597 261.532 634.114 265.591C627.632 269.651 620.138 271.804 612.49 271.804C604.842 271.804 597.348 269.651 590.866 265.591C584.383 261.532 579.175 255.729 575.836 248.848C572.498 241.967 571.164 234.284 571.987 226.68C572.809 219.076 575.756 211.858 580.49 205.85C574.84 198.669 571.769 189.797 571.769 180.66C571.769 171.523 574.84 162.651 580.49 155.47L580.44 155.48Z" fill="#111827"/>
<path id="Vector_12" opacity="0.1" d="M653.2 180.67C653.214 189.809 650.141 198.685 644.48 205.86C649.214 211.868 652.16 219.086 652.983 226.69C653.806 234.294 652.472 241.977 649.134 248.858C645.795 255.739 640.587 261.542 634.104 265.601C627.622 269.661 620.128 271.814 612.48 271.814C604.832 271.814 597.338 269.661 590.856 265.601C584.373 261.542 579.165 255.739 575.826 248.858C572.488 241.977 571.154 234.294 571.976 226.69C572.799 219.086 575.746 211.868 580.48 205.86C575 198.93 653.2 176.1 653.2 180.67Z" fill="black"/>
</g>
<g id="Group_3" opacity="0.1">
<path id="Vector_13" opacity="0.1" d="M1038.58 337.02C1044.86 337.02 1049.96 330.349 1049.96 322.12C1049.96 313.891 1044.86 307.22 1038.58 307.22C1032.29 307.22 1027.2 313.891 1027.2 322.12C1027.2 330.349 1032.29 337.02 1038.58 337.02Z" fill="#3F3D56"/>
<path id="Vector_14" opacity="0.1" d="M1029.57 258.37C1027.98 255.598 1027.16 252.454 1027.19 249.26C1027.19 241.03 1032.29 234.36 1038.58 234.36C1044.87 234.36 1049.96 241.03 1049.96 249.26C1049.99 252.454 1049.17 255.598 1047.58 258.37C1049.14 261.151 1049.96 264.286 1049.96 267.475C1049.96 270.664 1049.14 273.799 1047.58 276.58C1049.14 279.361 1049.96 282.496 1049.96 285.685C1049.96 288.874 1049.14 292.009 1047.58 294.79C1049.17 297.561 1049.99 300.706 1049.96 303.9C1049.96 312.12 1044.86 318.8 1038.58 318.8C1032.3 318.8 1027.19 312.12 1027.19 303.9C1027.16 300.706 1027.98 297.561 1029.57 294.79C1028.01 292.009 1027.19 288.874 1027.19 285.685C1027.19 282.496 1028.01 279.361 1029.57 276.58C1028.01 273.799 1027.19 270.664 1027.19 267.475C1027.19 264.286 1028.01 261.151 1029.57 258.37V258.37Z" fill="#3F3D56"/>
<path id="Vector_15" opacity="0.1" d="M1038.58 245.97C1044.86 245.97 1049.96 239.299 1049.96 231.07C1049.96 222.841 1044.86 216.17 1038.58 216.17C1032.29 216.17 1027.2 222.841 1027.2 231.07C1027.2 239.299 1032.29 245.97 1038.58 245.97Z" fill="#3F3D56"/>
<path id="Vector_16" opacity="0.1" d="M1038.58 227.76C1044.86 227.76 1049.96 221.089 1049.96 212.86C1049.96 204.631 1044.86 197.96 1038.58 197.96C1032.29 197.96 1027.2 204.631 1027.2 212.86C1027.2 221.089 1032.29 227.76 1038.58 227.76Z" fill="#3F3D56"/>
<path id="Vector_17" opacity="0.1" d="M1081.18 88.23C1082.74 86.2532 1084.16 84.1679 1085.42 81.99L1055.52 77.08L1087.86 77.32C1090.96 70.5659 1092.64 63.2511 1092.81 55.8231C1092.99 48.3951 1091.64 41.0102 1088.86 34.12L1045.47 56.63L1085.47 27.21C1081.75 20.6725 1076.72 14.9749 1070.69 10.4755C1064.67 5.97612 1057.77 2.77213 1050.45 1.06497C1043.12 -0.642197 1035.53 -0.81562 1028.13 0.555599C1020.74 1.92682 1013.7 4.81303 1007.48 9.0328C1001.25 13.2526 995.966 18.7147 991.953 25.0757C987.94 31.4368 985.286 38.5592 984.158 45.9954C983.031 53.4316 983.453 61.0206 985.4 68.2855C987.347 75.5504 990.775 82.334 995.47 88.21C993.045 91.2902 990.96 94.6228 989.25 98.15L1028.08 118.37L986.69 104.48C983.781 113.072 983.061 122.254 984.596 131.194C986.131 140.134 989.872 148.55 995.48 155.68C989.154 163.722 985.218 173.381 984.123 183.554C983.028 193.728 984.818 204.004 989.288 213.207C993.758 222.411 1000.73 230.171 1009.4 235.601C1018.07 241.03 1028.1 243.909 1038.33 243.909C1048.56 243.909 1058.59 241.03 1067.26 235.601C1075.93 230.171 1082.9 222.411 1087.37 213.207C1091.84 204.004 1093.63 193.728 1092.54 183.554C1091.44 173.381 1087.51 163.722 1081.18 155.68C1088.74 146.07 1092.85 134.197 1092.85 121.97C1092.85 109.743 1088.74 97.87 1081.18 88.26V88.23Z" fill="#111827"/>
<path id="Vector_18" opacity="0.1" d="M983.81 121.94C983.79 134.171 987.903 146.049 995.48 155.65C989.154 163.692 985.218 173.351 984.123 183.524C983.028 193.698 984.818 203.973 989.288 213.177C993.758 222.381 1000.73 230.141 1009.4 235.571C1018.07 241 1028.1 243.879 1038.33 243.879C1048.56 243.879 1058.59 241 1067.26 235.571C1075.93 230.141 1082.9 222.381 1087.37 213.177C1091.84 203.973 1093.63 193.698 1092.54 183.524C1091.44 173.351 1087.51 163.692 1081.18 155.65C1088.49 146.37 983.81 115.82 983.81 121.94Z" fill="black"/>
</g>
<g id="Group_4" opacity="0.1">
<path id="Vector_19" opacity="0.1" d="M928.72 335.39C933.42 335.39 937.23 330.407 937.23 324.26C937.23 318.113 933.42 313.13 928.72 313.13C924.02 313.13 920.21 318.113 920.21 324.26C920.21 330.407 924.02 335.39 928.72 335.39Z" fill="#3F3D56"/>
<path id="Vector_20" opacity="0.1" d="M922 276.63C920.817 274.561 920.206 272.214 920.23 269.83C920.23 263.68 924.04 258.69 928.73 258.69C933.42 258.69 937.24 263.69 937.24 269.83C937.266 272.215 936.651 274.563 935.46 276.63C936.627 278.708 937.24 281.052 937.24 283.435C937.24 285.818 936.627 288.162 935.46 290.24C936.627 292.318 937.24 294.662 937.24 297.045C937.24 299.428 936.627 301.772 935.46 303.85C936.651 305.917 937.266 308.265 937.24 310.65C937.24 316.8 933.43 321.79 928.73 321.79C924.03 321.79 920.23 316.79 920.23 310.65C920.206 308.266 920.817 305.919 922 303.85C920.842 301.769 920.235 299.427 920.235 297.045C920.235 294.663 920.842 292.321 922 290.24C920.842 288.159 920.235 285.817 920.235 283.435C920.235 281.053 920.842 278.711 922 276.63Z" fill="#3F3D56"/>
<path id="Vector_21" opacity="0.1" d="M928.72 267.35C933.42 267.35 937.23 262.367 937.23 256.22C937.23 250.073 933.42 245.09 928.72 245.09C924.02 245.09 920.21 250.073 920.21 256.22C920.21 262.367 924.02 267.35 928.72 267.35Z" fill="#3F3D56"/>
<path id="Vector_22" opacity="0.1" d="M928.72 253.74C933.42 253.74 937.23 248.757 937.23 242.61C937.23 236.463 933.42 231.48 928.72 231.48C924.02 231.48 920.21 236.463 920.21 242.61C920.21 248.757 924.02 253.74 928.72 253.74Z" fill="#3F3D56"/>
<path id="Vector_23" opacity="0.1" d="M960.56 149.48C961.728 148.005 962.787 146.448 963.73 144.82L941.38 141.15L965.55 141.33C967.869 136.284 969.134 130.817 969.268 125.265C969.402 119.713 968.402 114.192 966.33 109.04L933.9 125.87L963.81 103.87C961.013 99.0182 957.246 94.795 952.743 91.4641C948.241 88.1332 943.101 85.7661 937.643 84.5105C932.185 83.2549 926.527 83.1378 921.022 84.1665C915.517 85.1952 910.283 87.3476 905.647 90.4893C901.011 93.6311 897.072 97.6947 894.076 102.427C891.081 107.159 889.093 112.457 888.236 117.992C887.38 123.526 887.673 129.178 889.099 134.594C890.524 140.01 893.05 145.074 896.52 149.47C894.71 151.774 893.151 154.265 891.87 156.9L920.87 171.97L890 161.6C887.827 168.021 887.291 174.882 888.438 181.562C889.585 188.243 892.38 194.532 896.57 199.86C891.836 205.868 888.89 213.086 888.067 220.69C887.244 228.294 888.578 235.977 891.916 242.858C895.255 249.739 900.464 255.542 906.946 259.601C913.428 263.661 920.922 265.814 928.57 265.814C936.218 265.814 943.712 263.661 950.194 259.601C956.677 255.542 961.885 249.739 965.224 242.858C968.562 235.977 969.896 228.294 969.074 220.69C968.251 213.086 965.304 205.868 960.57 199.86C966.22 192.679 969.291 183.807 969.291 174.67C969.291 165.533 966.22 156.661 960.57 149.48H960.56Z" fill="#111827"/>
<path id="Vector_24" opacity="0.1" d="M887.8 174.67C887.786 183.809 890.859 192.685 896.52 199.86C891.786 205.868 888.839 213.086 888.017 220.69C887.194 228.294 888.528 235.977 891.866 242.858C895.205 249.739 900.413 255.542 906.895 259.601C913.378 263.661 920.872 265.814 928.52 265.814C936.168 265.814 943.662 263.661 950.144 259.601C956.627 255.542 961.835 249.739 965.174 242.858C968.512 235.977 969.846 228.294 969.023 220.69C968.201 213.086 965.254 205.868 960.52 199.86C966 192.93 887.8 170.1 887.8 174.67Z" fill="black"/>
</g>
<g id="Group_5" opacity="0.1">
<path id="Vector_25" opacity="0.1" d="M61.59 337.02C67.875 337.02 72.97 330.349 72.97 322.12C72.97 313.891 67.875 307.22 61.59 307.22C55.305 307.22 50.21 313.891 50.21 322.12C50.21 330.349 55.305 337.02 61.59 337.02Z" fill="#3F3D56"/>
<path id="Vector_26" opacity="0.1" d="M70.59 258.37C72.1775 255.598 72.999 252.454 72.97 249.26C72.97 241.03 67.87 234.36 61.59 234.36C55.31 234.36 50.21 241.03 50.21 249.26C50.1779 252.453 50.9959 255.597 52.58 258.37C51.0254 261.153 50.2093 264.287 50.2093 267.475C50.2093 270.663 51.0254 273.797 52.58 276.58C51.0254 279.363 50.2093 282.497 50.2093 285.685C50.2093 288.873 51.0254 292.007 52.58 294.79C50.9927 297.561 50.1745 300.706 50.21 303.9C50.21 312.12 55.3 318.8 61.59 318.8C67.88 318.8 73 312.14 73 303.92C73.0319 300.726 72.2103 297.581 70.62 294.81C72.1801 292.029 72.9994 288.894 72.9994 285.705C72.9994 282.516 72.1801 279.381 70.62 276.6C72.1801 273.819 72.9994 270.684 72.9994 267.495C72.9994 264.306 72.1801 261.171 70.62 258.39L70.59 258.37Z" fill="#3F3D56"/>
<path id="Vector_27" opacity="0.1" d="M61.59 245.97C67.875 245.97 72.97 239.299 72.97 231.07C72.97 222.841 67.875 216.17 61.59 216.17C55.305 216.17 50.21 222.841 50.21 231.07C50.21 239.299 55.305 245.97 61.59 245.97Z" fill="#3F3D56"/>
<path id="Vector_28" opacity="0.1" d="M61.59 227.76C67.875 227.76 72.97 221.089 72.97 212.86C72.97 204.631 67.875 197.96 61.59 197.96C55.305 197.96 50.21 204.631 50.21 212.86C50.21 221.089 55.305 227.76 61.59 227.76Z" fill="#3F3D56"/>
<path id="Vector_29" opacity="0.1" d="M19 88.23C17.4438 86.2508 16.027 84.1657 14.76 81.99L44.67 77.08L12.3 77.37C9.20381 70.6159 7.51819 63.3011 7.34624 55.8731C7.1743 48.4451 8.51965 41.0602 11.3 34.17L54.7 56.68L14.7 27.26C18.4281 20.7419 23.4625 15.0643 29.4876 10.5829C35.5126 6.10151 42.3984 2.91302 49.7134 1.2173C57.0283 -0.478424 64.6147 -0.644827 71.997 0.728529C79.3793 2.10189 86.3983 4.98539 92.614 9.19829C98.8298 13.4112 104.108 18.8627 108.119 25.211C112.129 31.5593 114.785 38.6676 115.919 46.0903C117.054 53.513 116.643 61.0901 114.713 68.3466C112.782 75.6031 109.373 82.3825 104.7 88.26C107.124 91.3402 109.21 94.6728 110.92 98.2L72.08 118.37L113.48 104.48C116.382 113.073 117.097 122.255 115.561 131.194C114.024 140.133 110.285 148.549 104.68 155.68C111.006 163.722 114.942 173.381 116.037 183.554C117.132 193.728 115.342 204.003 110.872 213.207C106.402 222.411 99.4324 230.171 90.7598 235.601C82.0872 241.03 72.0618 243.909 61.83 243.909C51.5981 243.909 41.5728 241.03 32.9002 235.601C24.2276 230.171 17.2579 222.411 12.7879 213.207C8.3179 204.003 6.52809 193.728 7.62309 183.554C8.7181 173.381 12.6537 163.722 18.98 155.68C11.4197 146.07 7.30933 134.197 7.30933 121.97C7.30933 109.743 11.4197 97.87 18.98 88.26L19 88.23Z" fill="#111827"/>
<path id="Vector_30" opacity="0.1" d="M116.35 121.94C116.37 134.171 112.257 146.049 104.68 155.65C111.006 163.692 114.942 173.351 116.037 183.524C117.132 193.698 115.342 203.973 110.872 213.177C106.402 222.381 99.4323 230.141 90.7598 235.571C82.0872 241 72.0618 243.879 61.83 243.879C51.5981 243.879 41.5727 241 32.9002 235.571C24.2276 230.141 17.2579 222.381 12.7879 213.177C8.31788 203.973 6.52807 193.698 7.62308 183.524C8.71808 173.351 12.6537 163.692 18.98 155.65C11.67 146.37 116.35 115.82 116.35 121.94Z" fill="black"/>
</g>
<g id="Group_6" opacity="0.1">
<path id="Vector_31" opacity="0.1" d="M171.44 335.39C176.14 335.39 179.95 330.407 179.95 324.26C179.95 318.113 176.14 313.13 171.44 313.13C166.74 313.13 162.93 318.113 162.93 324.26C162.93 330.407 166.74 335.39 171.44 335.39Z" fill="#3F3D56"/>
<path id="Vector_32" opacity="0.1" d="M178.17 276.63C179.353 274.561 179.964 272.214 179.94 269.83C179.94 263.68 176.14 258.69 171.44 258.69C166.74 258.69 162.93 263.69 162.93 269.83C162.909 272.214 163.523 274.562 164.71 276.63C163.543 278.708 162.93 281.052 162.93 283.435C162.93 285.818 163.543 288.162 164.71 290.24C163.543 292.318 162.93 294.662 162.93 297.045C162.93 299.428 163.543 301.772 164.71 303.85C163.523 305.918 162.909 308.265 162.93 310.65C162.93 316.8 166.74 321.79 171.44 321.79C176.14 321.79 179.94 316.79 179.94 310.65C179.964 308.266 179.353 305.919 178.17 303.85C179.328 301.769 179.935 299.427 179.935 297.045C179.935 294.663 179.328 292.321 178.17 290.24C179.328 288.159 179.935 285.817 179.935 283.435C179.935 281.053 179.328 278.711 178.17 276.63V276.63Z" fill="#3F3D56"/>
<path id="Vector_33" opacity="0.1" d="M171.44 267.35C176.14 267.35 179.95 262.367 179.95 256.22C179.95 250.073 176.14 245.09 171.44 245.09C166.74 245.09 162.93 250.073 162.93 256.22C162.93 262.367 166.74 267.35 171.44 267.35Z" fill="#3F3D56"/>
<path id="Vector_34" opacity="0.1" d="M171.44 253.74C176.14 253.74 179.95 248.757 179.95 242.61C179.95 236.463 176.14 231.48 171.44 231.48C166.74 231.48 162.93 236.463 162.93 242.61C162.93 248.757 166.74 253.74 171.44 253.74Z" fill="#3F3D56"/>
<path id="Vector_35" opacity="0.1" d="M139.6 149.48C138.436 148.003 137.376 146.446 136.43 144.82L158.78 141.15L134.61 141.33C132.291 136.284 131.026 130.817 130.892 125.265C130.758 119.713 131.758 114.192 133.83 109.04L166.26 125.87L136.35 103.87C139.147 99.0182 142.914 94.795 147.417 91.4641C151.919 88.1332 157.059 85.7661 162.517 84.5105C167.975 83.2549 173.633 83.1378 179.138 84.1665C184.643 85.1952 189.877 87.3476 194.513 90.4893C199.149 93.6311 203.088 97.6947 206.084 102.427C209.079 107.159 211.067 112.457 211.924 117.992C212.78 123.526 212.487 129.178 211.061 134.594C209.636 140.01 207.11 145.074 203.64 149.47C205.457 151.769 207.016 154.261 208.29 156.9L179.29 171.97L210.22 161.59C212.393 168.011 212.929 174.872 211.782 181.552C210.635 188.233 207.84 194.522 203.65 199.85C208.384 205.858 211.33 213.076 212.153 220.68C212.976 228.284 211.642 235.967 208.304 242.848C204.965 249.729 199.757 255.532 193.274 259.591C186.792 263.651 179.298 265.804 171.65 265.804C164.002 265.804 156.508 263.651 150.026 259.591C143.543 255.532 138.335 249.729 134.996 242.848C131.658 235.967 130.324 228.284 131.147 220.68C131.969 213.076 134.916 205.858 139.65 199.85C134 192.669 130.929 183.797 130.929 174.66C130.929 165.523 134 156.651 139.65 149.47L139.6 149.48Z" fill="#111827"/>
<path id="Vector_36" opacity="0.1" d="M212.36 174.67C212.374 183.809 209.301 192.685 203.64 199.86C208.374 205.868 211.32 213.086 212.143 220.69C212.966 228.294 211.632 235.977 208.294 242.858C204.955 249.739 199.747 255.542 193.264 259.601C186.782 263.661 179.288 265.814 171.64 265.814C163.992 265.814 156.498 263.661 150.016 259.601C143.533 255.542 138.325 249.739 134.986 242.858C131.648 235.977 130.314 228.294 131.137 220.69C131.959 213.086 134.906 205.868 139.64 199.86C134.14 192.93 212.36 170.1 212.36 174.67Z" fill="black"/>
</g>
<path id="Vector_37" opacity="0.1" d="M548 501.99C850.652 501.99 1096 498.023 1096 493.13C1096 488.237 850.652 484.27 548 484.27C245.348 484.27 0 488.237 0 493.13C0 498.023 245.348 501.99 548 501.99Z" fill="#111827"/>
<path id="Vector_38" opacity="0.1" d="M548 574.74C850.652 574.74 1096 570.773 1096 565.88C1096 560.987 850.652 557.02 548 557.02C245.348 557.02 0 560.987 0 565.88C0 570.773 245.348 574.74 548 574.74Z" fill="#111827"/>
<path id="Vector_39" opacity="0.1" d="M548 350.16C850.652 350.16 1096 346.193 1096 341.3C1096 336.407 850.652 332.44 548 332.44C245.348 332.44 0 336.407 0 341.3C0 346.193 245.348 350.16 548 350.16Z" fill="#111827"/>
<path id="Vector_40" opacity="0.1" d="M548 426.07C850.652 426.07 1096 422.103 1096 417.21C1096 412.317 850.652 408.35 548 408.35C245.348 408.35 0 412.317 0 417.21C0 422.103 245.348 426.07 548 426.07Z" fill="#111827"/>
<path id="Vector_41" opacity="0.1" d="M808.79 110.37C805.22 109.696 801.53 110.1 798.19 111.53C796.185 112.423 794.015 112.885 791.82 112.885C789.625 112.885 787.455 112.423 785.45 111.53C783.078 110.489 780.508 109.976 777.918 110.026C775.328 110.076 772.78 110.688 770.45 111.82C769.123 112.525 767.643 112.896 766.14 112.9C760.06 112.9 755.01 106.78 753.96 98.71C755.157 97.8181 756.174 96.7088 756.96 95.44C760.52 89.7 766.03 86.01 772.23 86.01C778.43 86.01 783.87 89.65 787.43 95.33C788.49 97.0461 789.977 98.4584 791.745 99.4293C793.513 100.4 795.503 100.897 797.52 100.87H797.68C802.57 100.82 806.76 104.7 808.79 110.37Z" fill="#111827"/>
<path id="Vector_42" opacity="0.1" d="M827.3 85.02L817.48 91.24L823.48 80.4C821.79 79.055 819.7 78.3124 817.54 78.29H817.38C816.71 78.2991 816.041 78.2489 815.38 78.14L812 80.25L813.43 77.65C811.067 76.8321 809.025 75.2843 807.6 73.23L801.6 77.01L805.36 70.17C801.88 65.99 797.18 63.43 792.02 63.43C785.82 63.43 780.31 67.11 776.74 72.85C775.688 74.5663 774.2 75.9736 772.428 76.9291C770.656 77.8845 768.662 78.354 766.65 78.29H766.32C759.48 78.29 753.94 86.04 753.94 95.6C753.94 105.16 759.48 112.92 766.32 112.92C767.822 112.91 769.3 112.54 770.63 111.84C772.959 110.705 775.507 110.09 778.097 110.039C780.687 109.987 783.258 110.499 785.63 111.54C787.633 112.44 789.804 112.905 792 112.905C794.196 112.905 796.367 112.44 798.37 111.54C800.723 110.522 803.268 110.022 805.831 110.072C808.395 110.122 810.918 110.721 813.23 111.83C814.545 112.518 816.006 112.882 817.49 112.89C824.33 112.89 829.87 105.13 829.87 95.57C829.911 91.8935 829.028 88.2656 827.3 85.02V85.02Z" fill="#111827"/>
<path id="Vector_43" opacity="0.1" d="M391.26 104.96C388.758 104.487 386.172 104.769 383.83 105.77C382.428 106.396 380.91 106.72 379.375 106.72C377.84 106.72 376.322 106.396 374.92 105.77C373.261 105.041 371.463 104.683 369.652 104.719C367.84 104.755 366.058 105.186 364.43 105.98C363.503 106.463 362.475 106.72 361.43 106.73C357.18 106.73 353.64 102.45 352.9 96.8C353.748 96.1782 354.471 95.4011 355.03 94.51C357.52 90.51 361.38 87.91 365.72 87.91C370.06 87.91 373.87 90.46 376.36 94.43C377.104 95.6317 378.145 96.6207 379.384 97.3006C380.623 97.9804 382.017 98.3282 383.43 98.31H383.54C386.9 98.29 389.83 101.01 391.26 104.96Z" fill="#111827"/>
<path id="Vector_44" opacity="0.1" d="M404.21 87.23L397.34 91.59L401.51 84C400.331 83.0564 398.87 82.5353 397.36 82.52H397.24C396.764 82.5285 396.289 82.4917 395.82 82.41L393.49 83.89L394.49 82.07C392.838 81.4955 391.411 80.4141 390.41 78.98L386.24 81.62L388.88 76.84C387.771 75.4084 386.358 74.2412 384.743 73.4232C383.127 72.6051 381.35 72.1565 379.54 72.11C375.2 72.11 371.34 74.69 368.85 78.71C368.112 79.9119 367.069 80.8974 365.828 81.5665C364.586 82.2356 363.19 82.5645 361.78 82.52H361.55C356.76 82.52 352.88 87.94 352.88 94.64C352.88 101.34 356.76 106.76 361.55 106.76C362.597 106.752 363.626 106.491 364.55 106C366.178 105.21 367.959 104.783 369.768 104.748C371.577 104.714 373.373 105.073 375.03 105.8C376.44 106.443 377.97 106.784 379.52 106.8C381.046 106.797 382.555 106.477 383.95 105.86C385.597 105.147 387.378 104.796 389.172 104.831C390.966 104.865 392.732 105.284 394.35 106.06C395.276 106.545 396.305 106.799 397.35 106.8C402.13 106.8 406.01 101.37 406.01 94.68C406.05 92.0843 405.431 89.5209 404.21 87.23V87.23Z" fill="#111827"/>
<path id="Vector_45" opacity="0.1" d="M269.59 183.37C272.089 182.898 274.672 183.18 277.01 184.18C278.413 184.807 279.933 185.13 281.47 185.13C283.007 185.13 284.527 184.807 285.93 184.18C287.589 183.452 289.386 183.094 291.197 183.128C293.008 183.163 294.79 183.59 296.42 184.38C297.344 184.872 298.373 185.133 299.42 185.14C303.67 185.14 307.21 180.85 307.94 175.2C307.092 174.58 306.373 173.803 305.82 172.91C303.32 168.91 299.46 166.32 295.13 166.32C290.8 166.32 286.98 168.86 284.48 172.84C283.737 174.04 282.697 175.028 281.46 175.708C280.223 176.388 278.831 176.736 277.42 176.72H277.31C273.94 176.74 271 179.45 269.59 183.37Z" fill="#111827"/>
<path id="Vector_46" opacity="0.1" d="M256.63 165.67L263.51 170.03L259.33 162.45C260.512 161.503 261.976 160.979 263.49 160.96H263.6C264.079 160.967 264.557 160.933 265.03 160.86L267.36 162.33L266.36 160.52C268.008 159.944 269.433 158.863 270.43 157.43L274.6 160.07L272 155.28C273.109 153.85 274.523 152.684 276.138 151.868C277.754 151.051 279.531 150.605 281.34 150.56C285.67 150.56 289.54 153.14 292.03 157.16C292.767 158.36 293.808 159.345 295.048 160.014C296.288 160.683 297.682 161.013 299.09 160.97H299.33C304.11 160.97 307.99 166.4 307.99 173.09C307.99 179.78 304.11 185.21 299.33 185.21C298.284 185.205 297.255 184.948 296.33 184.46C294.702 183.666 292.92 183.235 291.108 183.199C289.297 183.163 287.499 183.521 285.84 184.25C284.435 184.899 282.907 185.24 281.36 185.25C279.831 185.249 278.319 184.929 276.92 184.31C275.275 183.597 273.496 183.247 271.703 183.281C269.911 183.316 268.147 183.735 266.53 184.51C265.604 184.995 264.575 185.249 263.53 185.25C258.74 185.25 254.86 179.83 254.86 173.13C254.813 170.534 255.422 167.968 256.63 165.67V165.67Z" fill="#111827"/>
<path id="Vector_47" d="M664.31 490.26C666.92 485.42 663.96 479.5 660.56 475.19C657.16 470.88 653 466.39 653.09 460.9C653.22 453.01 661.6 448.34 668.29 444.16C673.258 441.045 677.84 437.352 681.94 433.16C683.655 431.546 685.073 429.644 686.13 427.54C687.52 424.46 687.48 420.94 687.39 417.54C687.103 406.28 686.547 395.027 685.72 383.78" stroke="#3F3D56" stroke-width="4" stroke-miterlimit="10"/>
<path id="Vector_48" d="M698.45 383.22C698.353 381.157 697.74 379.152 696.665 377.389C695.59 375.626 694.089 374.161 692.3 373.13L689.54 378.58L689.63 371.98C687.127 371.243 684.454 371.32 681.998 372.201C679.542 373.082 677.429 374.72 675.965 376.88C674.5 379.039 673.76 381.608 673.851 384.216C673.941 386.824 674.858 389.335 676.469 391.388C678.08 393.441 680.301 394.929 682.812 395.637C685.324 396.345 687.995 396.237 690.441 395.328C692.887 394.419 694.981 392.756 696.42 390.58C697.86 388.404 698.571 385.826 698.45 383.22V383.22Z" fill="#111827"/>
<path id="Vector_49" d="M676.49 466.54C675.252 468.947 673.255 470.879 670.808 472.036C668.361 473.193 665.601 473.512 662.955 472.943C660.308 472.374 657.924 470.948 656.169 468.887C654.415 466.825 653.389 464.243 653.25 461.54C653.158 459.835 653.431 458.131 654.05 456.54C654.957 454.22 656.545 452.229 658.606 450.83C660.667 449.431 663.104 448.69 665.595 448.704C668.086 448.718 670.514 449.487 672.559 450.909C674.604 452.331 676.17 454.34 677.05 456.67L669.36 462.93L677.82 460.93C677.83 462.879 677.374 464.803 676.49 466.54V466.54Z" fill="#111827"/>
<path id="Vector_50" d="M670.41 442.64C667.389 442.782 664.421 441.808 662.073 439.902C659.725 437.996 658.16 435.292 657.678 432.306C657.196 429.32 657.83 426.262 659.459 423.714C661.088 421.165 663.598 419.306 666.51 418.49L666.44 423.56L669.23 418.04C672.492 417.887 675.681 419.037 678.096 421.236C680.51 423.435 681.952 426.503 682.105 429.765C682.257 433.027 681.108 436.216 678.909 438.631C676.71 441.045 673.642 442.488 670.38 442.64H670.41Z" fill="#111827"/>
<path id="Vector_51" d="M700.3 422.75C698.391 422.849 696.486 422.501 694.735 421.736C692.984 420.971 691.435 419.808 690.211 418.34C688.987 416.873 688.121 415.14 687.683 413.28C687.245 411.42 687.245 409.483 687.685 407.623C688.125 405.763 688.992 404.031 690.217 402.564C691.443 401.098 692.992 399.936 694.744 399.173C696.496 398.409 698.402 398.063 700.31 398.163C702.219 398.264 704.078 398.807 705.74 399.75L703.57 405.75L708 401.37C709.792 403.013 711.057 405.149 711.636 407.51C712.216 409.871 712.083 412.35 711.255 414.636C710.427 416.921 708.942 418.911 706.985 420.353C705.028 421.795 702.688 422.626 700.26 422.74L700.3 422.75Z" fill="#111827"/>
<path id="Vector_52" opacity="0.1" d="M696.79 386.5C693.95 386.81 691.19 387.69 688.33 387.87C685.47 388.05 682.33 387.36 680.55 385.15C679.713 383.862 678.952 382.527 678.27 381.15C677.493 379.937 676.428 378.933 675.17 378.23C674.374 379.79 673.919 381.502 673.838 383.252C673.756 385.002 674.048 386.749 674.696 388.376C675.343 390.004 676.33 391.475 677.591 392.69C678.853 393.906 680.359 394.838 682.009 395.425C683.659 396.012 685.416 396.24 687.162 396.094C688.907 395.948 690.601 395.431 692.131 394.577C693.661 393.724 694.991 392.554 696.032 391.146C697.074 389.737 697.802 388.123 698.17 386.41C697.72 386.42 697.25 386.45 696.79 386.5Z" fill="black"/>
<path id="Vector_53" opacity="0.1" d="M700.3 422.75C698.177 422.85 696.065 422.4 694.168 421.442C692.272 420.484 690.655 419.051 689.476 417.283C688.297 415.516 687.596 413.473 687.441 411.353C687.285 409.234 687.681 407.111 688.59 405.19C689.566 405.849 690.405 406.691 691.06 407.67C691.795 409.072 692.61 410.431 693.5 411.74C695.42 413.99 698.7 414.74 701.67 414.59C704.64 414.44 707.51 413.59 710.47 413.34C710.88 413.34 711.29 413.28 711.71 413.27C711.098 415.876 709.652 418.211 707.593 419.922C705.534 421.632 702.974 422.625 700.3 422.75V422.75Z" fill="black"/>
<path id="Vector_54" opacity="0.1" d="M670.41 442.64C668.309 442.738 666.219 442.297 664.337 441.358C662.455 440.419 660.846 439.014 659.661 437.276C658.477 435.538 657.758 433.526 657.572 431.431C657.386 429.336 657.74 427.229 658.6 425.31C659.615 425.978 660.499 426.825 661.21 427.81C662.016 429.245 662.908 430.631 663.88 431.96C665.95 434.27 669.45 435.09 672.59 434.96C675.73 434.83 678.59 434.15 681.59 433.96C680.843 436.38 679.37 438.511 677.37 440.064C675.369 441.617 672.939 442.516 670.41 442.64Z" fill="black"/>
<path id="Vector_55" opacity="0.1" d="M676.49 466.54C675.252 468.947 673.255 470.879 670.808 472.036C668.361 473.193 665.601 473.512 662.955 472.943C660.308 472.374 657.924 470.948 656.169 468.887C654.415 466.825 653.389 464.243 653.25 461.54C653.158 459.835 653.431 458.131 654.05 456.54C655.064 457.206 655.974 458.018 656.75 458.95C657.92 460.37 658.69 461.95 660.05 463.32C662.56 465.79 666.63 466.81 670.24 466.9C672.329 466.906 674.416 466.786 676.49 466.54V466.54Z" fill="black"/>
<path id="Vector_56" d="M54.31 418.26C56.92 413.42 53.96 407.5 50.56 403.19C47.16 398.88 43 394.37 43.09 388.9C43.22 381.01 51.6 376.34 58.29 372.16C63.2581 369.045 67.84 365.352 71.94 361.16C73.6546 359.546 75.0728 357.644 76.13 355.54C77.52 352.46 77.48 348.94 77.39 345.54C77.0967 334.28 76.54 323.027 75.72 311.78" stroke="#3F3D56" stroke-width="4" stroke-miterlimit="10"/>
<path id="Vector_57" d="M88.45 311.22C88.3534 309.157 87.7395 307.152 86.6648 305.389C85.5901 303.626 84.0891 302.161 82.3 301.13L79.54 306.58L79.63 299.98C77.1269 299.243 74.4545 299.32 71.9983 300.201C69.5421 301.082 67.4293 302.72 65.9648 304.88C64.5004 307.039 63.76 309.608 63.8506 312.216C63.9411 314.824 64.858 317.335 66.4688 319.388C68.0796 321.441 70.301 322.929 72.8123 323.637C75.3237 324.345 77.9951 324.237 80.441 323.328C82.8869 322.419 84.9807 320.756 86.4202 318.58C87.8598 316.404 88.5706 313.827 88.45 311.22Z" fill="#111827"/>
<path id="Vector_58" d="M66.49 394.54C65.2517 396.947 63.2545 398.879 60.8077 400.036C58.3609 401.193 55.6008 401.512 52.9546 400.943C50.3083 400.374 47.9235 398.948 46.1692 396.887C44.4149 394.825 43.3889 392.243 43.25 389.54C43.158 387.835 43.4307 386.131 44.05 384.54C44.9566 382.22 46.5451 380.229 48.6061 378.83C50.6671 377.431 53.1038 376.69 55.5946 376.704C58.0855 376.718 60.5136 377.487 62.5587 378.909C64.6037 380.331 66.1697 382.34 67.05 384.67L59.36 390.93L67.82 388.93C67.8297 390.879 67.3737 392.803 66.49 394.54V394.54Z" fill="#111827"/>
<path id="Vector_59" d="M60.41 370.64C57.389 370.782 54.4213 369.808 52.073 367.902C49.7248 365.996 48.1604 363.292 47.6782 360.306C47.196 357.32 47.8299 354.262 49.4588 351.714C51.0877 349.165 53.5977 347.306 56.51 346.49L56.44 351.56L59.23 346.04C60.8453 345.965 62.4596 346.208 63.9808 346.756C65.502 347.305 66.9003 348.147 68.0958 349.236C69.2914 350.325 70.2608 351.638 70.9487 353.102C71.6366 354.565 72.0295 356.15 72.105 357.765C72.1805 359.38 71.9371 360.995 71.3888 362.516C70.8404 364.037 69.9978 365.435 68.909 366.631C67.8202 367.826 66.5066 368.796 65.0432 369.484C63.5798 370.172 61.9953 370.565 60.38 370.64H60.41Z" fill="#111827"/>
<path id="Vector_60" d="M90.3 350.75C88.3914 350.849 86.486 350.502 84.7348 349.736C82.9836 348.971 81.4347 347.808 80.2107 346.34C78.9867 344.873 78.1212 343.14 77.6829 341.28C77.2446 339.42 77.2454 337.483 77.6853 335.623C78.1252 333.763 78.9921 332.031 80.2173 330.565C81.4425 329.098 82.9924 327.936 84.7443 327.173C86.4961 326.409 88.4018 326.063 90.3103 326.163C92.2188 326.264 94.0778 326.807 95.74 327.75L93.57 333.75L98 329.37C99.7918 331.013 101.057 333.149 101.636 335.51C102.216 337.871 102.083 340.35 101.255 342.636C100.427 344.921 98.9415 346.911 96.9848 348.353C95.0281 349.795 92.6881 350.626 90.26 350.74L90.3 350.75Z" fill="#111827"/>
<path id="Vector_61" opacity="0.1" d="M86.79 314.5C83.95 314.81 81.19 315.69 78.33 315.87C75.47 316.05 72.33 315.36 70.55 313.15C69.7128 311.862 68.9515 310.527 68.27 309.15C67.4926 307.936 66.4278 306.933 65.17 306.23C64.3736 307.79 63.9193 309.502 63.8375 311.252C63.7557 313.002 64.0482 314.749 64.6956 316.376C65.343 318.004 66.3302 319.475 67.5914 320.69C68.8526 321.906 70.3587 322.838 72.0091 323.425C73.6595 324.012 75.4161 324.24 77.1616 324.094C78.9071 323.948 80.6014 323.431 82.1311 322.577C83.6608 321.724 84.9908 320.554 86.0322 319.146C87.0736 317.737 87.8024 316.123 88.17 314.41C87.72 314.42 87.25 314.45 86.79 314.5Z" fill="black"/>
<path id="Vector_62" opacity="0.1" d="M90.3 350.75C88.1775 350.85 86.0651 350.4 84.1683 349.442C82.2716 348.484 80.6551 347.051 79.4762 345.283C78.2973 343.516 77.5961 341.473 77.4408 339.353C77.2855 337.234 77.6814 335.111 78.59 333.19C79.5659 333.849 80.4047 334.691 81.06 335.67C81.7955 337.072 82.6101 338.431 83.5 339.74C85.42 341.99 88.7 342.74 91.67 342.59C94.64 342.44 97.51 341.59 100.47 341.34C100.88 341.34 101.29 341.28 101.71 341.27C101.098 343.876 99.6523 346.211 97.5934 347.922C95.5344 349.632 92.974 350.625 90.3 350.75Z" fill="black"/>
<path id="Vector_63" opacity="0.1" d="M60.41 370.64C58.3094 370.738 56.2186 370.297 54.3369 369.358C52.4553 368.419 50.8456 367.014 49.6614 365.276C48.4771 363.538 47.7578 361.526 47.572 359.431C47.3862 357.336 47.7401 355.229 48.6 353.31C49.6146 353.978 50.499 354.825 51.21 355.81C52.0163 357.245 52.9079 358.631 53.88 359.96C55.95 362.27 59.45 363.09 62.59 362.96C65.73 362.83 68.59 362.15 71.59 361.96C70.8434 364.38 69.3698 366.511 67.3695 368.064C65.3692 369.617 62.9393 370.516 60.41 370.64Z" fill="black"/>
<path id="Vector_64" opacity="0.1" d="M66.49 394.54C65.2517 396.947 63.2545 398.879 60.8077 400.036C58.3609 401.193 55.6008 401.512 52.9546 400.943C50.3083 400.374 47.9235 398.948 46.1692 396.887C44.4149 394.825 43.3889 392.243 43.25 389.54C43.158 387.835 43.4307 386.131 44.05 384.54C45.064 385.206 45.9738 386.018 46.75 386.95C47.92 388.37 48.69 389.95 50.05 391.32C52.56 393.79 56.63 394.81 60.24 394.9C62.3287 394.906 64.4158 394.786 66.49 394.54V394.54Z" fill="black"/>
<path id="Vector_65" d="M460.52 335.89C457.91 331.06 460.87 325.14 464.28 320.83C467.69 316.52 471.83 312.03 471.74 306.54C471.62 298.64 463.24 293.98 456.54 289.8C451.574 286.686 446.995 282.994 442.9 278.8C441.177 277.195 439.755 275.295 438.7 273.19C437.32 270.1 437.36 266.59 437.44 263.19C437.74 251.93 438.297 240.677 439.11 229.43" stroke="#3F3D56" stroke-width="4" stroke-miterlimit="10"/>
<path id="Vector_66" d="M426.39 228.86C426.485 226.798 427.097 224.793 428.17 223.03C429.243 221.266 430.742 219.802 432.53 218.77L435.29 224.22L435.21 217.62C436.524 217.238 437.892 217.073 439.26 217.13C441.692 217.243 444.035 218.075 445.994 219.52C447.954 220.965 449.44 222.959 450.266 225.249C451.093 227.539 451.221 230.022 450.636 232.385C450.051 234.748 448.778 236.885 446.979 238.525C445.18 240.165 442.935 241.234 440.528 241.598C438.121 241.962 435.66 241.604 433.456 240.57C431.252 239.536 429.405 237.871 428.147 235.787C426.889 233.702 426.278 231.292 426.39 228.86V228.86Z" fill="#111827"/>
<path id="Vector_67" d="M448.34 312.18C449.63 314.692 451.746 316.684 454.331 317.822C456.916 318.96 459.813 319.175 462.538 318.429C465.262 317.684 467.647 316.025 469.293 313.73C470.939 311.435 471.746 308.643 471.578 305.824C471.41 303.005 470.278 300.329 468.371 298.245C466.465 296.161 463.899 294.797 461.106 294.38C458.312 293.964 455.461 294.52 453.029 295.957C450.597 297.393 448.733 299.622 447.75 302.27L455.44 308.53L446.98 306.53C446.973 308.495 447.44 310.433 448.34 312.18V312.18Z" fill="#111827"/>
<path id="Vector_68" d="M454.42 288.28C457.442 288.425 460.412 287.453 462.762 285.547C465.113 283.642 466.679 280.938 467.163 277.952C467.647 274.965 467.013 271.905 465.384 269.355C463.755 266.806 461.244 264.946 458.33 264.13L458.39 269.2L455.6 263.68C452.339 263.52 449.148 264.661 446.729 266.853C444.31 269.046 442.86 272.109 442.7 275.37C442.63 276.79 442.809 278.212 443.23 279.57C443.968 281.999 445.44 284.14 447.444 285.7C449.447 287.259 451.884 288.161 454.42 288.28V288.28Z" fill="#111827"/>
<path id="Vector_69" d="M424.54 268.37C426.448 268.467 428.353 268.119 430.103 267.352C431.854 266.586 433.402 265.423 434.625 263.954C435.848 262.486 436.712 260.753 437.149 258.893C437.587 257.033 437.585 255.097 437.144 253.238C436.704 251.378 435.836 249.647 434.611 248.181C433.385 246.715 431.836 245.554 430.084 244.791C428.332 244.028 426.427 243.682 424.519 243.783C422.61 243.883 420.752 244.427 419.09 245.37L421.27 251.37L416.79 247.08C415.595 248.163 414.626 249.471 413.94 250.93C413.253 252.389 412.862 253.969 412.79 255.58C412.73 256.719 412.835 257.861 413.1 258.97C413.727 261.567 415.183 263.888 417.247 265.584C419.311 267.28 421.871 268.258 424.54 268.37Z" fill="#111827"/>
<path id="Vector_70" opacity="0.1" d="M428.05 232.14C430.89 232.45 433.65 233.33 436.5 233.51C439.35 233.69 442.5 233 444.29 230.79C445.124 229.502 445.882 228.166 446.56 226.79C447.341 225.576 448.409 224.573 449.67 223.87C450.468 225.431 450.923 227.144 451.006 228.894C451.089 230.645 450.796 232.393 450.149 234.022C449.501 235.651 448.513 237.122 447.251 238.339C445.989 239.555 444.482 240.487 442.83 241.074C441.178 241.661 439.421 241.888 437.674 241.74C435.928 241.593 434.233 241.074 432.703 240.219C431.173 239.364 429.843 238.192 428.803 236.781C427.763 235.371 427.035 233.754 426.67 232.04C427.12 232.05 427.58 232.09 428.05 232.14Z" fill="black"/>
<path id="Vector_71" opacity="0.1" d="M424.54 268.37C426.662 268.468 428.772 268.015 430.667 267.056C432.563 266.098 434.178 264.665 435.356 262.898C436.534 261.131 437.236 259.09 437.392 256.972C437.549 254.854 437.156 252.731 436.25 250.81C435.271 251.469 434.429 252.311 433.77 253.29C433.035 254.692 432.22 256.051 431.33 257.36C429.42 259.61 426.14 260.36 423.17 260.21C420.2 260.06 417.33 259.21 414.37 258.96C413.96 258.96 413.54 258.9 413.13 258.89C413.741 261.497 415.186 263.833 417.245 265.544C419.304 267.255 421.866 268.247 424.54 268.37V268.37Z" fill="black"/>
<path id="Vector_72" opacity="0.1" d="M454.42 288.28C456.522 288.381 458.614 287.942 460.497 287.003C462.38 286.065 463.991 284.66 465.176 282.921C466.361 281.182 467.08 279.169 467.265 277.073C467.449 274.977 467.093 272.869 466.23 270.95C465.217 271.616 464.335 272.463 463.63 273.45C462.824 274.885 461.932 276.271 460.96 277.6C458.88 279.91 455.39 280.73 452.24 280.6C449.09 280.47 446.24 279.79 443.24 279.6C443.983 282.022 445.455 284.156 447.456 285.709C449.457 287.263 451.889 288.161 454.42 288.28V288.28Z" fill="black"/>
<path id="Vector_73" opacity="0.1" d="M448.34 312.18C449.785 314.966 452.239 317.094 455.201 318.131C458.163 319.167 461.41 319.033 464.276 317.756C467.143 316.48 469.413 314.156 470.624 311.261C471.835 308.366 471.894 305.117 470.79 302.18C469.772 302.84 468.861 303.653 468.09 304.59C466.92 306.01 466.09 307.59 464.79 308.96C462.27 311.43 458.21 312.45 454.59 312.54C452.501 312.541 450.415 312.421 448.34 312.18V312.18Z" fill="black"/>
<path id="Vector_74" d="M779.73 338.14C834.936 338.14 879.69 293.386 879.69 238.18C879.69 182.974 834.936 138.22 779.73 138.22C724.524 138.22 679.77 182.974 679.77 238.18C679.77 293.386 724.524 338.14 779.73 338.14Z" fill="#3F3D56"/>
<path id="Vector_75" d="M822.64 263.96C819.16 260.48 810.79 255.23 806.64 253.27C801.85 250.97 800.09 251.01 796.7 253.46C793.88 255.46 792.05 257.39 788.81 256.68C785.57 255.97 779.15 251.13 772.94 244.94C766.73 238.75 761.91 232.37 761.22 229.08C760.53 225.79 762.43 224 764.45 221.18C766.89 217.79 766.96 216.03 764.64 211.24C762.64 207.09 757.45 198.74 753.94 195.24C750.43 191.74 749.67 192.51 747.75 193.24C745.774 194.068 743.876 195.072 742.08 196.24C738.6 198.57 736.65 200.51 735.28 203.43C733.91 206.35 732.36 211.77 740.33 225.96C746.209 236.815 753.656 246.745 762.43 255.43V255.43C771.144 264.224 781.108 271.684 792 277.57C806.18 285.57 811.61 283.98 814.53 282.62C817.45 281.26 819.39 279.33 821.71 275.82C822.88 274.025 823.884 272.127 824.71 270.15C825.37 268.23 826.15 267.45 822.64 263.96Z" fill="#111827"/>
<path id="Vector_76" opacity="0.1" d="M779.73 138.23C759.948 138.22 740.607 144.078 724.154 155.062C707.702 166.047 694.877 181.664 687.302 199.939C679.727 218.213 677.742 238.324 681.599 257.727C685.456 277.13 694.981 294.952 708.969 308.941C722.958 322.929 740.78 332.454 760.183 336.311C779.586 340.168 799.697 338.183 817.971 330.608C836.246 323.033 851.863 310.208 862.848 293.756C873.832 277.303 879.69 257.962 879.68 238.18C879.667 211.676 869.132 186.261 850.391 167.519C831.649 148.778 806.234 138.243 779.73 138.23V138.23ZM779.73 324.85C762.588 324.85 745.832 319.767 731.579 310.243C717.326 300.72 706.217 287.184 699.657 271.347C693.098 255.51 691.381 238.084 694.725 221.272C698.07 204.459 706.324 189.016 718.445 176.895C730.566 164.774 746.009 156.52 762.822 153.175C779.634 149.831 797.06 151.548 812.897 158.107C828.734 164.667 842.27 175.776 851.793 190.029C861.317 204.282 866.4 221.038 866.4 238.18C866.4 249.562 864.158 260.832 859.803 271.347C855.447 281.862 849.063 291.417 841.015 299.465C832.967 307.513 823.412 313.897 812.897 318.253C802.382 322.608 791.112 324.85 779.73 324.85Z" fill="black"/>
<path id="Vector_77" d="M550.08 489.97C605.286 489.97 650.04 445.216 650.04 390.01C650.04 334.804 605.286 290.05 550.08 290.05C494.874 290.05 450.12 334.804 450.12 390.01C450.12 445.216 494.874 489.97 550.08 489.97Z" fill="#3F3D56"/>
<path id="Vector_78" d="M606.93 359.81L577 390.26C576.947 390.31 576.906 390.371 576.877 390.438C576.848 390.505 576.834 390.577 576.834 390.65C576.834 390.723 576.848 390.795 576.877 390.862C576.906 390.929 576.947 390.99 577 391.04L598 413.37C598.502 413.876 598.844 414.519 598.982 415.219C599.12 415.919 599.049 416.644 598.776 417.303C598.504 417.962 598.043 418.526 597.451 418.924C596.859 419.322 596.163 419.536 595.45 419.54C594.49 419.538 593.57 419.157 592.89 418.48L572 396.23C571.893 396.125 571.75 396.066 571.6 396.066C571.45 396.066 571.307 396.125 571.2 396.23L566.11 401.37C564.026 403.501 561.537 405.194 558.789 406.35C556.042 407.506 553.091 408.101 550.11 408.1C547.073 408.086 544.069 407.467 541.274 406.279C538.478 405.09 535.948 403.357 533.83 401.18L528.94 396.18C528.833 396.075 528.69 396.016 528.54 396.016C528.39 396.016 528.247 396.075 528.14 396.18L507.3 418.38C506.965 418.716 506.566 418.982 506.128 419.164C505.69 419.346 505.22 419.44 504.745 419.44C504.27 419.44 503.8 419.346 503.362 419.164C502.924 418.982 502.525 418.716 502.19 418.38C501.853 418.045 501.585 417.647 501.403 417.209C501.22 416.77 501.126 416.3 501.126 415.825C501.126 415.35 501.22 414.88 501.403 414.441C501.585 414.003 501.853 413.605 502.19 413.27L523.11 390.99C523.203 390.881 523.254 390.743 523.254 390.6C523.254 390.457 523.203 390.319 523.11 390.21L493.18 359.76C493.103 359.683 493.005 359.63 492.898 359.609C492.791 359.587 492.68 359.598 492.579 359.64C492.478 359.682 492.392 359.752 492.332 359.843C492.272 359.934 492.24 360.041 492.24 360.15V421.08C492.248 423.435 493.187 425.692 494.853 427.357C496.518 429.023 498.775 429.962 501.13 429.97H599C601.355 429.962 603.612 429.023 605.277 427.357C606.943 425.692 607.882 423.435 607.89 421.08V360.2C607.895 360.087 607.865 359.974 607.803 359.879C607.742 359.783 607.653 359.709 607.548 359.666C607.442 359.624 607.327 359.615 607.216 359.64C607.105 359.666 607.006 359.725 606.93 359.81V359.81Z" fill="#111827"/>
<path id="Vector_79" d="M550.08 400.87C552.109 400.89 554.121 400.502 555.997 399.729C557.873 398.956 559.574 397.814 561 396.37L604.59 352C603.043 350.718 601.099 350.012 599.09 350H501.15C499.14 350.007 497.195 350.714 495.65 352L539.25 396.37C540.663 397.805 542.35 398.943 544.21 399.716C546.07 400.489 548.066 400.881 550.08 400.87V400.87Z" fill="#111827"/>
<path id="Vector_80" opacity="0.1" d="M548.82 290.06C529.038 290.05 509.697 295.908 493.244 306.892C476.792 317.877 463.967 333.494 456.392 351.769C448.817 370.043 446.832 390.154 450.689 409.557C454.546 428.96 464.071 446.782 478.059 460.771C492.048 474.759 509.871 484.284 529.273 488.141C548.676 491.998 568.787 490.013 587.061 482.438C605.336 474.863 620.953 462.038 631.938 445.586C642.922 429.133 648.78 409.792 648.77 390.01C648.757 363.506 638.222 338.091 619.481 319.349C600.739 300.608 575.324 290.073 548.82 290.06ZM548.82 476.68C531.678 476.68 514.922 471.597 500.669 462.074C486.416 452.55 475.307 439.014 468.747 423.177C462.188 407.34 460.471 389.914 463.815 373.102C467.16 356.289 475.414 340.846 487.535 328.725C499.656 316.604 515.099 308.35 531.912 305.005C548.724 301.661 566.15 303.378 581.987 309.937C597.824 316.497 611.36 327.606 620.883 341.859C630.407 356.112 635.49 372.868 635.49 390.01C635.49 412.996 626.359 435.041 610.105 451.295C593.851 467.549 571.806 476.68 548.82 476.68Z" fill="black"/>
<path id="Vector_81" d="M312.85 415.32C368.056 415.32 412.81 370.566 412.81 315.36C412.81 260.154 368.056 215.4 312.85 215.4C257.644 215.4 212.89 260.154 212.89 315.36C212.89 370.566 257.644 415.32 312.85 415.32Z" fill="#3F3D56"/>
<path id="Vector_82" d="M312.85 267.53L273 359.47L276.72 363.19L312.86 347.25L349 363.19L352.72 359.47L312.85 267.53Z" fill="#111827"/>
<path id="Vector_83" opacity="0.1" d="M312.85 215.37C293.07 215.36 273.731 221.217 257.279 232.199C240.828 243.181 228.003 258.795 220.426 277.067C212.85 295.339 210.863 315.447 214.715 334.848C218.568 354.25 228.088 372.073 242.072 386.063C256.055 400.053 273.873 409.582 293.273 413.445C312.672 417.307 332.781 415.33 351.057 407.763C369.332 400.195 384.953 387.378 395.943 370.932C406.934 354.486 412.8 335.15 412.8 315.37C412.8 288.857 402.271 263.429 383.528 244.677C364.786 225.925 339.363 215.383 312.85 215.37V215.37ZM312.85 401.99C295.706 401.99 278.947 396.906 264.694 387.38C250.44 377.854 239.331 364.315 232.773 348.476C226.214 332.636 224.501 315.207 227.849 298.393C231.197 281.579 239.457 266.136 251.583 254.017C263.709 241.898 279.157 233.648 295.972 230.309C312.788 226.971 330.216 228.694 346.052 235.262C361.888 241.829 375.42 252.946 384.938 267.205C394.455 281.465 399.53 298.226 399.52 315.37C399.517 338.355 390.385 360.397 374.131 376.649C357.878 392.9 335.835 402.03 312.85 402.03V401.99Z" fill="black"/>
<g id="Group_7" opacity="0.1">
<path id="Vector_84" opacity="0.1" d="M762.55 487.63C762.55 487.63 752.61 487.36 749.61 486.82C749.61 487.33 749.61 487.63 749.61 487.63C748.83 488.41 763.37 488.81 763.37 488.81C763.568 488.828 763.756 488.905 763.91 489.03C763.38 487.63 762.55 487.63 762.55 487.63Z" fill="black"/>
<path id="Vector_85" opacity="0.1" d="M779.85 471.51C779.45 471.12 779.06 465.62 779.06 465.62C778.856 465.747 778.628 465.828 778.39 465.86C778.53 467.52 778.8 470.07 779.06 470.33C779.32 470.59 781.06 480.55 780.63 485.27C780.2 489.99 780.63 489.98 780.63 489.98C780.63 489.98 767.88 491.85 764.79 490.6C764.79 490.77 764.88 490.96 764.91 491.16C765.3 493.52 781.42 491.16 781.42 491.16C781.42 491.16 781.02 491.16 781.42 486.45C781.82 481.74 780.24 471.91 779.85 471.51Z" fill="black"/>
</g>
<g id="Group_8" opacity="0.1">
<path id="Vector_86" opacity="0.1" d="M760.2 465.62H759.98C760.829 465.785 761.701 465.785 762.55 465.62H762.8C761.938 465.494 761.062 465.494 760.2 465.62Z" fill="black"/>
<path id="Vector_87" opacity="0.1" d="M780.83 444.2C779.42 447.37 777.34 464.54 776.97 467.95C778.35 468.31 779.26 468.57 779.26 468.57C779.26 468.57 781.42 448.37 783 444.79L780.83 444.2Z" fill="black"/>
</g>
<path id="Vector_88" d="M836.39 414.37C839 409.54 836.04 403.61 832.63 399.3C829.22 394.99 825.08 390.51 825.17 385.01C825.29 377.12 833.67 372.46 840.37 368.27C845.337 365.157 849.916 361.465 854.01 357.27C855.73 355.663 857.152 353.763 858.21 351.66C859.59 348.57 859.55 345.06 859.47 341.66C859.177 330.393 858.62 319.14 857.8 307.9" stroke="#3F3D56" stroke-width="4" stroke-miterlimit="10"/>
<path id="Vector_89" d="M870.52 307.3C870.425 305.24 869.812 303.236 868.739 301.475C867.666 299.713 866.167 298.25 864.38 297.22L861.62 302.67L861.7 296.07C860.388 295.678 859.018 295.513 857.65 295.58C855.218 295.693 852.874 296.526 850.915 297.971C848.955 299.417 847.469 301.411 846.643 303.702C845.817 305.992 845.689 308.476 846.275 310.839C846.861 313.202 848.135 315.339 849.935 316.978C851.735 318.618 853.981 319.686 856.389 320.049C858.797 320.412 861.258 320.053 863.461 319.017C865.665 317.981 867.511 316.315 868.768 314.229C870.024 312.143 870.634 309.732 870.52 307.3V307.3Z" fill="#111827"/>
<path id="Vector_90" d="M848.57 390.63C847.279 393.141 845.163 395.133 842.578 396.269C839.994 397.406 837.096 397.62 834.373 396.875C831.649 396.129 829.264 394.47 827.619 392.175C825.973 389.88 825.166 387.089 825.334 384.27C825.502 381.452 826.633 378.776 828.539 376.692C830.445 374.609 833.01 373.244 835.803 372.827C838.596 372.409 841.447 372.965 843.879 374.4C846.311 375.835 848.176 378.063 849.16 380.71L841.47 386.97L849.93 384.97C849.938 386.939 849.472 388.88 848.57 390.63V390.63Z" fill="#111827"/>
<path id="Vector_91" d="M842.49 366.72C839.468 366.865 836.498 365.893 834.148 363.987C831.797 362.082 830.231 359.378 829.747 356.392C829.263 353.405 829.897 350.345 831.526 347.795C833.155 345.246 835.666 343.386 838.58 342.57L838.52 347.64L841.31 342.13C844.572 341.981 847.759 343.132 850.172 345.332C852.586 347.531 854.027 350.598 854.18 353.86C854.257 355.475 854.014 357.089 853.466 358.61C852.919 360.131 852.077 361.529 850.988 362.725C849.9 363.92 848.586 364.889 847.123 365.576C845.659 366.264 844.075 366.656 842.46 366.73L842.49 366.72Z" fill="#111827"/>
<path id="Vector_92" d="M872.37 346.84C870.462 346.937 868.557 346.589 866.807 345.822C865.056 345.056 863.508 343.893 862.285 342.424C861.062 340.956 860.198 339.223 859.761 337.363C859.323 335.503 859.325 333.567 859.766 331.708C860.206 329.848 861.074 328.117 862.299 326.651C863.525 325.185 865.074 324.024 866.826 323.261C868.578 322.498 870.483 322.152 872.391 322.253C874.3 322.353 876.158 322.897 877.82 323.84L875.64 329.84L880.12 325.54C881.314 326.624 882.281 327.932 882.968 329.391C883.654 330.85 884.046 332.43 884.12 334.04C884.18 335.179 884.076 336.321 883.81 337.43C883.183 340.028 881.728 342.351 879.664 344.048C877.6 345.746 875.04 346.726 872.37 346.84V346.84Z" fill="#111827"/>
<path id="Vector_93" opacity="0.1" d="M868.87 310.58C866.03 310.9 863.26 311.78 860.41 311.96C857.56 312.14 854.41 311.45 852.62 309.23C851.784 307.943 851.026 306.608 850.35 305.23C849.57 304.019 848.506 303.016 847.25 302.31C846.452 303.871 845.997 305.584 845.914 307.334C845.831 309.085 846.124 310.833 846.771 312.462C847.419 314.091 848.407 315.562 849.669 316.779C850.931 317.995 852.438 318.927 854.09 319.514C855.742 320.101 857.499 320.328 859.246 320.18C860.992 320.033 862.687 319.514 864.217 318.659C865.747 317.804 867.077 316.632 868.117 315.221C869.157 313.811 869.885 312.194 870.25 310.48C869.79 310.5 869.33 310.53 868.87 310.58Z" fill="black"/>
<path id="Vector_94" opacity="0.1" d="M872.37 346.84C870.248 346.938 868.138 346.485 866.243 345.526C864.347 344.568 862.732 343.135 861.554 341.368C860.376 339.601 859.674 337.56 859.518 335.442C859.361 333.324 859.754 331.201 860.66 329.28C861.639 329.935 862.481 330.774 863.14 331.75C863.871 333.154 864.686 334.514 865.58 335.82C867.49 338.08 870.77 338.82 873.74 338.68C876.71 338.54 879.58 337.68 882.54 337.43C882.95 337.43 883.37 337.36 883.78 337.35C883.169 339.958 881.725 342.295 879.666 344.008C877.607 345.72 875.045 346.715 872.37 346.84V346.84Z" fill="black"/>
<path id="Vector_95" opacity="0.1" d="M842.49 366.72C840.386 366.823 838.291 366.384 836.405 365.445C834.519 364.505 832.906 363.097 831.721 361.356C830.536 359.614 829.817 357.598 829.635 355.499C829.453 353.4 829.813 351.29 830.68 349.37C831.689 350.041 832.57 350.888 833.28 351.87C834.28 353.22 834.83 354.78 835.95 356.02C838.03 358.34 841.52 359.15 844.67 359.08C847.82 359.01 850.67 358.26 853.67 358.03C852.928 360.453 851.455 362.588 849.455 364.143C847.454 365.699 845.021 366.598 842.49 366.72V366.72Z" fill="black"/>
<path id="Vector_96" opacity="0.1" d="M848.57 390.63C847.102 393.377 844.648 395.465 841.702 396.476C838.756 397.486 835.537 397.344 832.692 396.076C829.847 394.809 827.587 392.511 826.368 389.646C825.149 386.78 825.06 383.559 826.12 380.63C827.136 381.293 828.046 382.105 828.82 383.04C830 384.47 830.77 386.04 832.12 387.42C834.64 389.89 838.7 390.9 842.32 391C844.409 390.998 846.496 390.874 848.57 390.63V390.63Z" fill="black"/>
<path id="Vector_97" d="M995.39 566.37C998 561.54 995.04 555.61 991.63 551.3C988.22 546.99 984.08 542.51 984.17 537.01C984.29 529.12 992.67 524.46 999.37 520.27C1004.34 517.157 1008.92 513.465 1013.01 509.27C1014.73 507.663 1016.15 505.763 1017.21 503.66C1018.59 500.57 1018.55 497.06 1018.47 493.66C1018.18 482.393 1017.63 471.14 1016.8 459.9" stroke="#3F3D56" stroke-width="4" stroke-miterlimit="10"/>
<path id="Vector_98" d="M1029.52 459.3C1029.42 457.24 1028.81 455.236 1027.74 453.475C1026.67 451.713 1025.17 450.25 1023.38 449.22L1020.62 454.67L1020.7 448.07C1019.4 447.684 1018.05 447.518 1016.7 447.58C1014.27 447.693 1011.92 448.526 1009.96 449.971C1008.01 451.417 1006.52 453.411 1005.69 455.701C1004.87 457.992 1004.74 460.476 1005.33 462.839C1005.91 465.202 1007.19 467.339 1008.99 468.978C1010.79 470.618 1013.03 471.686 1015.44 472.049C1017.85 472.412 1020.31 472.053 1022.51 471.017C1024.71 469.981 1026.56 468.315 1027.82 466.229C1029.07 464.143 1029.68 461.732 1029.57 459.3H1029.52Z" fill="#111827"/>
<path id="Vector_99" d="M1007.57 542.63C1006.28 545.141 1004.16 547.133 1001.58 548.269C998.994 549.406 996.096 549.62 993.373 548.875C990.649 548.129 988.264 546.47 986.619 544.175C984.973 541.88 984.166 539.089 984.334 536.27C984.502 533.452 985.633 530.776 987.539 528.692C989.445 526.609 992.01 525.244 994.803 524.827C997.596 524.409 1000.45 524.965 1002.88 526.4C1005.31 527.835 1007.18 530.063 1008.16 532.71L1000.47 538.97L1008.93 536.97C1008.94 538.939 1008.47 540.88 1007.57 542.63V542.63Z" fill="#111827"/>
<path id="Vector_100" d="M1001.49 518.72C998.468 518.865 995.498 517.893 993.148 515.988C990.797 514.082 989.23 511.378 988.747 508.392C988.263 505.405 988.897 502.345 990.526 499.795C992.155 497.246 994.666 495.386 997.58 494.57L997.52 499.64L1000.31 494.13C1003.57 493.981 1006.76 495.132 1009.17 497.332C1011.59 499.531 1013.03 502.598 1013.18 505.86C1013.26 507.475 1013.01 509.089 1012.47 510.61C1011.92 512.131 1011.08 513.529 1009.99 514.725C1008.9 515.92 1007.59 516.889 1006.12 517.576C1004.66 518.264 1003.07 518.656 1001.46 518.73L1001.49 518.72Z" fill="#111827"/>
<path id="Vector_101" d="M1031.37 498.84C1029.46 498.937 1027.56 498.589 1025.81 497.822C1024.06 497.056 1022.51 495.893 1021.29 494.424C1020.06 492.956 1019.2 491.223 1018.76 489.363C1018.32 487.503 1018.33 485.567 1018.77 483.708C1019.21 481.848 1020.07 480.117 1021.3 478.651C1022.52 477.185 1024.07 476.024 1025.83 475.261C1027.58 474.498 1029.48 474.152 1031.39 474.253C1033.3 474.354 1035.16 474.897 1036.82 475.84L1034.64 481.84L1039.12 477.54C1040.31 478.624 1041.28 479.932 1041.97 481.391C1042.65 482.85 1043.05 484.43 1043.12 486.04C1043.18 487.179 1043.08 488.321 1042.81 489.43C1042.18 492.028 1040.73 494.351 1038.66 496.048C1036.6 497.746 1034.04 498.726 1031.37 498.84V498.84Z" fill="#111827"/>
<path id="Vector_102" opacity="0.1" d="M1027.87 462.58C1025.03 462.9 1022.26 463.78 1019.41 463.96C1016.56 464.14 1013.41 463.45 1011.62 461.23C1010.78 459.943 1010.03 458.608 1009.35 457.23C1008.57 456.019 1007.51 455.016 1006.25 454.31C1005.45 455.871 1005 457.584 1004.91 459.334C1004.83 461.085 1005.12 462.833 1005.77 464.462C1006.42 466.091 1007.41 467.562 1008.67 468.779C1009.93 469.995 1011.44 470.927 1013.09 471.514C1014.74 472.101 1016.5 472.328 1018.25 472.18C1019.99 472.033 1021.69 471.514 1023.22 470.659C1024.75 469.804 1026.08 468.632 1027.12 467.221C1028.16 465.811 1028.88 464.194 1029.25 462.48C1028.79 462.5 1028.33 462.53 1027.87 462.58Z" fill="black"/>
<path id="Vector_103" opacity="0.1" d="M1031.37 498.84C1029.25 498.938 1027.14 498.485 1025.24 497.526C1023.35 496.568 1021.73 495.135 1020.55 493.368C1019.38 491.601 1018.67 489.56 1018.52 487.442C1018.36 485.324 1018.75 483.201 1019.66 481.28C1020.64 481.935 1021.48 482.774 1022.14 483.75C1022.87 485.154 1023.69 486.514 1024.58 487.82C1026.49 490.08 1029.77 490.82 1032.74 490.68C1035.71 490.54 1038.58 489.68 1041.54 489.43C1041.95 489.43 1042.37 489.36 1042.78 489.35C1042.17 491.958 1040.72 494.295 1038.67 496.008C1036.61 497.72 1034.05 498.715 1031.37 498.84Z" fill="black"/>
<path id="Vector_104" opacity="0.1" d="M1001.49 518.72C999.386 518.823 997.291 518.384 995.405 517.445C993.519 516.505 991.906 515.097 990.721 513.356C989.536 511.614 988.817 509.598 988.635 507.499C988.453 505.4 988.813 503.29 989.68 501.37C990.689 502.041 991.57 502.888 992.28 503.87C993.28 505.22 993.83 506.78 994.95 508.02C997.03 510.34 1000.52 511.15 1003.67 511.08C1006.82 511.01 1009.67 510.26 1012.67 510.03C1011.93 512.453 1010.46 514.588 1008.45 516.143C1006.45 517.699 1004.02 518.598 1001.49 518.72Z" fill="black"/>
<path id="Vector_105" opacity="0.1" d="M1007.57 542.63C1006.1 545.377 1003.65 547.465 1000.7 548.476C997.756 549.486 994.537 549.344 991.692 548.076C988.847 546.809 986.587 544.511 985.368 541.646C984.149 538.78 984.06 535.559 985.12 532.63C986.136 533.293 987.046 534.105 987.82 535.04C989 536.47 989.82 538.04 991.12 539.42C993.64 541.89 997.7 542.9 1001.32 543C1003.41 542.998 1005.5 542.874 1007.57 542.63V542.63Z" fill="black"/>
</g>
<defs>
<clipPath id="clip0">
<rect width="1096" height="574.74" fill="white"/>
</clipPath>
</defs>
</svg>
