<svg xmlns="http://www.w3.org/2000/svg" xmlns:xlink="http://www.w3.org/1999/xlink" version="1.1" width="1000" height="1000" viewBox="0 0 1000 1000" xml:space="preserve">
<desc>Created with Fabric.js 3.5.0</desc>
<defs>
</defs>
<rect x="0" y="0" width="100%" height="100%" fill="rgba(255,255,255,0)"/>
<g transform="matrix(7.1023 0 0 7.1023 500.0017 500.0017)" id="566705">
<g style="" vector-effect="non-scaling-stroke">
		<g transform="matrix(1 0 0 1 32.205 0.1069)" id="original">
<path style="stroke: none; stroke-width: 1; stroke-dasharray: none; stroke-linecap: butt; stroke-dashoffset: 0; stroke-linejoin: miter; stroke-miterlimit: 4; is-custom-font: none; font-file-url: none; fill: rgb(165,171,189); fill-rule: nonzero; opacity: 1;" transform=" translate(-96.205, -64.107)" d="M 126.67 98.44 c -4.56 1.16 -7.38 0.05 -9.91 -3.75 c -5.68 -8.51 -11.95 -16.63 -18 -24.9 c -0.78 -1.07 -1.59 -2.12 -2.6 -3.45 C 89 76 81.85 85.2 75.14 94.77 c -2.4 3.42 -4.92 4.91 -9.4 3.7 L 92.66 62.34 L 67.6 29.71 c 4.31 -0.84 7.29 -0.41 9.93 3.45 c 5.83 8.52 12.26 16.63 18.67 25.21 C 102.65 49.82 109 41.7 115 33.26 c 2.41 -3.42 5 -4.72 9.33 -3.46 c -3.28 4.35 -6.49 8.63 -9.72 12.88 c -4.36 5.73 -8.64 11.53 -13.16 17.14 c -1.61 2 -1.35 3.3 0.09 5.19 C 109.9 76 118.16 87.1 126.67 98.44 Z" stroke-linecap="round"/>
</g>
		<g transform="matrix(1 0 0 1 -31.8707 -0.0155)" id="original">
<path style="stroke: none; stroke-width: 1; stroke-dasharray: none; stroke-linecap: butt; stroke-dashoffset: 0; stroke-linejoin: miter; stroke-miterlimit: 4; is-custom-font: none; font-file-url: none; fill: rgb(165,171,189); fill-rule: nonzero; opacity: 1;" transform=" translate(-32.1293, -63.9846)" d="M 1.33 61.74 c 0.72 -3.61 1.2 -7.29 2.2 -10.83 c 6 -21.43 30.6 -30.34 47.5 -17.06 C 60.93 41.64 63.39 52.62 62.9 65 H 7.1 c -0.84 22.21 15.15 35.62 35.53 28.78 c 7.15 -2.4 11.36 -8 13.47 -15 c 1.07 -3.51 2.84 -4.06 6.14 -3.06 c -1.69 8.76 -5.52 16.08 -13.52 20.66 c -12 6.86 -29.13 4.64 -38.14 -4.89 C 5.26 85.89 3 78.92 2 71.39 c -0.15 -1.2 -0.46 -2.38 -0.7 -3.57 Q 1.33 64.78 1.33 61.74 Z M 7.2 60.25 H 57.63 c -0.33 -16.06 -10.33 -27.47 -24 -27.57 C 18.63 32.56 7.85 43.7 7.2 60.25 Z" stroke-linecap="round"/>
</g>
</g>
</g>
</svg>