<?xml version="1.0" encoding="UTF-8" standalone="no" ?>
<!DOCTYPE svg PUBLIC "-//W3C//DTD SVG 1.1//EN" "http://www.w3.org/Graphics/SVG/1.1/DTD/svg11.dtd">
<svg xmlns="http://www.w3.org/2000/svg" xmlns:xlink="http://www.w3.org/1999/xlink" version="1.1" width="512" height="512" viewBox="0 0 512 512" xml:space="preserve">
<desc>Created with Fabric.js 3.6.3</desc>
<defs>
</defs>
<g transform="matrix(0.88 0 0 0.88 254.5 254.5)"  >
<g style=""   >
		<g transform="matrix(1 0 0 1 0 0)"  >
<rect style="stroke: none; stroke-width: 1; stroke-dasharray: none; stroke-linecap: butt; stroke-dashoffset: 0; stroke-linejoin: miter; stroke-miterlimit: 4; fill: rgb(247,223,30); fill-rule: nonzero; opacity: 1;"  x="-256" y="-256" rx="15" ry="15" width="512" height="512" />
</g>
		<g transform="matrix(1 0 0 1 27.5 66)"  >
<path style="stroke: none; stroke-width: 1; stroke-dasharray: none; stroke-linecap: butt; stroke-dashoffset: 0; stroke-linejoin: miter; stroke-miterlimit: 4; fill: rgb(0,0,0); fill-rule: nonzero; opacity: 1;"  transform=" translate(-283.5, -322)" d="m 324 370 c 10 17 24 29 47 29 c 20 0 33 -10 33 -24 c 0 -16 -13 -22 -35 -32 l -12 -5 c -35 -15 -58 -33 -58 -72 c 0 -36 27 -64 70 -64 c 31 0 53 11 68 39 l -37 24 c -8 -15 -17 -21 -31 -21 c -14 0 -23 9 -23 21 c 0 14 9 20 30 29 l 12 5 c 41 18 64 35 64 76 c 0 43 -34 67 -80 67 c -45 0 -74 -21 -88 -49 z m -170 4 c 8 13 14 25 31 25 c 16 0 26 -6 26 -30 V 203 h 48 v 164 c 0 50 -29 72 -72 72 c -39 0 -61 -20 -72 -44 z" stroke-linecap="round" />
</g>
</g>
</g>
</svg>