<svg xmlns="http://www.w3.org/2000/svg" xmlns:xlink="http://www.w3.org/1999/xlink" width="500" zoomAndPan="magnify" viewBox="0 0 375 374.999991" height="500" preserveAspectRatio="xMidYMid meet" version="1.0"><defs><clipPath id="id1"><path d="M 0 17.546875 L 375 17.546875 L 375 357.296875 L 0 357.296875 Z M 0 17.546875 " clip-rule="nonzero"/></clipPath></defs><g clip-path="url(#id1)"><path fill="#a5abbd" d="M 137.980469 165.316406 L 184.375 109.8125 Z M 236.777344 209.289062 L 190.625 264.792969 Z M 318.988281 64.402344 L 357.691406 17.546875 L 8.894531 17.546875 L 28.367188 64.402344 L 47.117188 109.8125 L 66.585938 156.90625 L 103.367188 156.90625 L 0 329.425781 L 137.980469 165.316406 L 145.191406 156.90625 L 184.375 109.8125 L 96.875 109.8125 L 77.886719 64.402344 L 259.375 64.402344 L 221.632812 109.8125 L 182.933594 156.90625 L 157.691406 187.421875 L 132.453125 217.9375 L 93.75 264.792969 L 56.011719 310.203125 L 17.308594 357.296875 L 366.105469 357.296875 L 346.632812 310.203125 L 327.882812 264.792969 L 308.414062 217.9375 L 271.632812 217.9375 L 375 45.179688 L 255.046875 187.421875 L 255.289062 187.421875 L 249.039062 194.632812 L 236.777344 209.289062 L 229.808594 217.9375 L 190.625 264.792969 L 278.125 264.792969 L 296.875 310.203125 L 115.625 310.203125 L 153.125 264.792969 L 192.066406 217.9375 L 217.308594 187.421875 L 242.546875 156.90625 L 281.25 109.8125 Z M 318.988281 64.402344 " fill-opacity="1" fill-rule="evenodd"/></g></svg>