<svg xmlns="http://www.w3.org/2000/svg" width="375" viewBox="0 0 375 262.5" height="262.5" version="1.0"><g fill="#A5ABBD"><g><g><path d="M 23.4375 -49.640625 L 6.484375 -49.640625 L 6.484375 -59.5625 L 23.4375 -59.5625 C 28.3125 -59.5625 32.398438 -61.398438 35.703125 -65.078125 C 39.015625 -68.753906 40.671875 -73.625 40.671875 -79.6875 L 40.671875 -228.328125 L 50.59375 -228.328125 L 50.59375 -79.6875 C 50.59375 -70.957031 47.972656 -63.765625 42.734375 -58.109375 C 37.503906 -52.460938 31.070312 -49.640625 23.4375 -49.640625 Z M 23.4375 -29.78125 L 6.484375 -29.78125 L 6.484375 -39.703125 L 23.4375 -39.703125 C 33.726562 -39.703125 42.484375 -43.609375 49.703125 -51.421875 C 56.921875 -59.234375 60.53125 -68.65625 60.53125 -79.6875 L 60.53125 -228.328125 L 70.453125 -228.328125 L 70.453125 -79.6875 C 70.453125 -65.90625 65.878906 -54.140625 56.734375 -44.390625 C 47.585938 -34.648438 36.488281 -29.78125 23.4375 -29.78125 Z M 23.4375 -9.921875 L 6.484375 -9.921875 L 6.484375 -19.859375 L 23.4375 -19.859375 C 39.25 -19.859375 52.691406 -25.691406 63.765625 -37.359375 C 74.847656 -49.035156 80.390625 -63.144531 80.390625 -79.6875 L 80.390625 -228.328125 L 90.3125 -228.328125 L 90.3125 -79.6875 C 90.3125 -67.09375 87.347656 -55.441406 81.421875 -44.734375 C 75.492188 -34.023438 67.378906 -25.546875 57.078125 -19.296875 C 46.785156 -13.046875 35.570312 -9.921875 23.4375 -9.921875 Z M 23.4375 9.921875 L 6.484375 9.921875 L 6.484375 0 L 23.4375 0 C 33.914062 0 43.890625 -2.113281 53.359375 -6.34375 C 62.828125 -10.570312 70.984375 -16.25 77.828125 -23.375 C 84.679688 -30.5 90.128906 -38.976562 94.171875 -48.8125 C 98.210938 -58.644531 100.234375 -68.9375 100.234375 -79.6875 L 100.234375 -228.328125 L 110.171875 -228.328125 L 110.171875 -79.6875 C 110.171875 -67.5625 107.894531 -55.984375 103.34375 -44.953125 C 98.789062 -33.921875 92.628906 -24.382812 84.859375 -16.34375 C 77.097656 -8.300781 67.863281 -1.914062 57.15625 2.8125 C 46.445312 7.550781 35.207031 9.921875 23.4375 9.921875 Z M 23.4375 9.921875" transform="translate(.356 244.21)"/></g></g></g><g fill="#A5ABBD"><g><g><path d="M 195.234375 -119.265625 L 205.15625 -119.265625 L 205.15625 0 L 195.234375 0 Z M 234.9375 -119.265625 L 244.875 -119.265625 L 244.875 0 L 234.9375 0 Z M 215.09375 -119.265625 L 225.015625 -119.265625 L 225.015625 0 L 215.09375 0 Z M 185.3125 -119.265625 L 185.3125 0 C 167.84375 6.613281 149.734375 9.921875 130.984375 9.921875 C 114.710938 9.921875 99.128906 6.929688 84.234375 0.953125 C 69.347656 -5.015625 56.25 -13.304688 44.9375 -23.921875 C 33.632812 -34.535156 24.601562 -47.675781 17.84375 -63.34375 C 11.09375 -79.019531 7.71875 -95.957031 7.71875 -114.15625 C 7.71875 -130.976562 11.003906 -147.039062 17.578125 -162.34375 C 24.148438 -177.65625 32.972656 -190.847656 44.046875 -201.921875 C 55.128906 -212.992188 68.320312 -221.816406 83.625 -228.390625 C 98.925781 -234.960938 114.988281 -238.25 131.8125 -238.25 C 152.769531 -238.25 172.253906 -233.378906 190.265625 -223.640625 C 208.285156 -213.898438 222.992188 -200.664062 234.390625 -183.9375 L 226.125 -178.546875 C 215.644531 -193.898438 202.109375 -206.035156 185.515625 -214.953125 C 168.921875 -223.867188 151.019531 -228.328125 131.8125 -228.328125 C 116.363281 -228.328125 101.582031 -225.316406 87.46875 -219.296875 C 73.363281 -213.273438 61.207031 -205.160156 51 -194.953125 C 40.800781 -184.753906 32.691406 -172.597656 26.671875 -158.484375 C 20.660156 -144.378906 17.65625 -129.601562 17.65625 -114.15625 C 17.65625 -97.519531 20.753906 -81.984375 26.953125 -67.546875 C 33.160156 -53.117188 41.429688 -41.035156 51.765625 -31.296875 C 62.109375 -21.554688 74.128906 -13.90625 87.828125 -8.34375 C 101.523438 -2.78125 115.773438 0 130.578125 0 C 146.109375 0 161.039062 -2.4375 175.375 -7.3125 L 175.375 -16.828125 C 161.6875 -12.222656 147.300781 -9.921875 132.21875 -9.921875 C 121.28125 -9.921875 110.640625 -11.460938 100.296875 -14.546875 C 89.960938 -17.628906 80.40625 -22.179688 71.625 -28.203125 C 62.84375 -34.222656 55.164062 -41.390625 48.59375 -49.703125 C 42.03125 -58.023438 36.882812 -67.722656 33.15625 -78.796875 C 29.4375 -89.867188 27.578125 -101.65625 27.578125 -114.15625 C 27.578125 -133 32.238281 -150.414062 41.5625 -166.40625 C 50.894531 -182.40625 63.554688 -195.070312 79.546875 -204.40625 C 95.546875 -213.738281 112.96875 -218.40625 131.8125 -218.40625 C 149.457031 -218.40625 165.863281 -214.289062 181.03125 -206.0625 C 196.195312 -197.832031 208.5625 -186.6875 218.125 -172.625 L 209.84375 -167.25 C 201.207031 -179.9375 190.019531 -189.976562 176.28125 -197.375 C 162.539062 -204.769531 147.71875 -208.46875 131.8125 -208.46875 C 119.03125 -208.46875 106.800781 -205.984375 95.125 -201.015625 C 83.457031 -196.054688 73.414062 -189.367188 65 -180.953125 C 56.59375 -172.546875 49.90625 -162.503906 44.9375 -150.828125 C 39.976562 -139.160156 37.5 -126.9375 37.5 -114.15625 C 37.5 -102.664062 39.175781 -91.890625 42.53125 -81.828125 C 45.882812 -71.765625 50.523438 -62.988281 56.453125 -55.5 C 62.390625 -48.007812 69.304688 -41.570312 77.203125 -36.1875 C 85.109375 -30.8125 93.726562 -26.742188 103.0625 -23.984375 C 112.394531 -21.234375 121.976562 -19.859375 131.8125 -19.859375 C 147.070312 -19.859375 161.59375 -22.429688 175.375 -27.578125 L 175.375 -37.5 C 161.769531 -32.257812 147.570312 -29.640625 132.78125 -29.640625 C 121.5625 -29.640625 110.847656 -31.546875 100.640625 -35.359375 C 90.441406 -39.179688 81.367188 -44.582031 73.421875 -51.5625 C 65.472656 -58.550781 59.15625 -67.46875 54.46875 -78.3125 C 49.78125 -89.15625 47.4375 -101.101562 47.4375 -114.15625 C 47.4375 -129.414062 51.203125 -143.523438 58.734375 -156.484375 C 66.273438 -169.453125 76.523438 -179.703125 89.484375 -187.234375 C 102.441406 -194.773438 116.550781 -198.546875 131.8125 -198.546875 C 146.0625 -198.546875 159.320312 -195.234375 171.59375 -188.609375 C 183.863281 -181.992188 193.859375 -172.988281 201.578125 -161.59375 L 193.3125 -156.21875 C 186.507812 -166.144531 177.707031 -174.023438 166.90625 -179.859375 C 156.101562 -185.703125 144.40625 -188.625 131.8125 -188.625 C 118.300781 -188.625 105.84375 -185.289062 94.4375 -178.625 C 83.039062 -171.957031 74.007812 -162.925781 67.34375 -151.53125 C 60.6875 -140.132812 57.359375 -127.675781 57.359375 -114.15625 C 57.359375 -104.78125 58.691406 -96.046875 61.359375 -87.953125 C 64.023438 -79.867188 67.703125 -72.882812 72.390625 -67 C 77.078125 -61.125 82.566406 -56.117188 88.859375 -51.984375 C 95.160156 -47.847656 101.941406 -44.742188 109.203125 -42.671875 C 116.460938 -40.609375 124 -39.578125 131.8125 -39.578125 C 147.34375 -39.578125 161.863281 -42.65625 175.375 -48.8125 L 175.375 -58.328125 C 162.320312 -52.535156 148.210938 -49.640625 133.046875 -49.640625 C 124.316406 -49.640625 116.09375 -50.972656 108.375 -53.640625 C 100.65625 -56.304688 93.691406 -60.210938 87.484375 -65.359375 C 81.273438 -70.503906 76.351562 -77.28125 72.71875 -85.6875 C 69.09375 -94.101562 67.28125 -103.59375 67.28125 -114.15625 C 67.28125 -122.894531 68.976562 -131.238281 72.375 -139.1875 C 75.78125 -147.132812 80.378906 -154.003906 86.171875 -159.796875 C 91.960938 -165.585938 98.832031 -170.179688 106.78125 -173.578125 C 114.738281 -176.984375 123.082031 -178.6875 131.8125 -178.6875 C 142.75 -178.6875 152.90625 -176.132812 162.28125 -171.03125 C 171.65625 -165.9375 179.285156 -159.019531 185.171875 -150.28125 L 177.03125 -144.90625 C 172.070312 -152.257812 165.613281 -158.070312 157.65625 -162.34375 C 149.707031 -166.625 141.09375 -168.765625 131.8125 -168.765625 C 116.738281 -168.765625 103.867188 -163.429688 93.203125 -152.765625 C 82.546875 -142.109375 77.21875 -129.238281 77.21875 -114.15625 C 77.21875 -104.875 78.734375 -96.671875 81.765625 -89.546875 C 84.796875 -82.421875 88.953125 -76.722656 94.234375 -72.453125 C 99.523438 -68.179688 105.410156 -64.960938 111.890625 -62.796875 C 118.367188 -60.640625 125.332031 -59.5625 132.78125 -59.5625 C 148.039062 -59.5625 162.238281 -62.734375 175.375 -69.078125 L 175.375 -119.265625 Z M 185.3125 -119.265625" transform="translate(123.062 244.21)"/></g></g></g></svg>