<svg id="visual" viewBox="0 0 960 540" width="960" height="540" xmlns="http://www.w3.org/2000/svg" xmlns:xlink="http://www.w3.org/1999/xlink" version="1.1"><path d="M0 364L32 378C64 392 128 420 192 421.5C256 423 320 398 384 387.8C448 377.7 512 382.3 576 403.2C640 424 704 461 768 443.2C832 425.3 896 352.7 928 316.3L960 280L960 541L928 541C896 541 832 541 768 541C704 541 640 541 576 541C512 541 448 541 384 541C320 541 256 541 192 541C128 541 64 541 32 541L0 541Z" fill="#141E39" stroke-linecap="round" stroke-linejoin="miter"></path></svg>